<?xml version="1.0" standalone="no"?><!DOCTYPE svg PUBLIC "-//W3C//DTD SVG 1.1//EN" "http://www.w3.org/Graphics/SVG/1.1/DTD/svg11.dtd"><svg t="1495604186381" class="icon" style="" viewBox="0 0 1024 1024" version="1.1" xmlns="http://www.w3.org/2000/svg" p-id="4391" xmlns:xlink="http://www.w3.org/1999/xlink" width="200" height="200"><defs><style type="text/css"></style></defs><path d="M868.354 455.022c63.927 0 28.024-168.147-28.023-168.147 28.024 0 0-140.119-56.053-140.119 0-56.048-56.047-84.071-112.095-84.071-236.76 0-153.487 59.247-392.338 84.071l0-28.019L167.749 118.737c-30.828 0-56.047 37.832-56.047 84.07L111.702 539.1c0 46.238 25.219 84.076 56.047 84.076l112.095 0 0-28.029-56.048 0L223.796 146.761l56.048 0 0 448.381c210.992 63.29 420.362 221.94 420.362 364.314 46.413 0 168.147-56.048 0-336.29l168.147 0C952.426 623.166 924.402 455.022 868.354 455.022L868.354 455.022z" p-id="4392" fill="#707070"></path></svg>