<?xml version="1.0" standalone="no"?><!DOCTYPE svg PUBLIC "-//W3C//DTD SVG 1.1//EN" "http://www.w3.org/Graphics/SVG/1.1/DTD/svg11.dtd"><svg t="1495604129513" class="icon" style="" viewBox="0 0 1024 1024" version="1.1" xmlns="http://www.w3.org/2000/svg" p-id="3433" xmlns:xlink="http://www.w3.org/1999/xlink" width="200" height="200"><defs><style type="text/css"></style></defs><path d="M207.245599 650.970098c-18.639522 0-33.695427-15.139815-33.695427-33.780361 0-18.639522 15.054881-33.69031 33.695427-33.69031 98.583273 0 178.794106-80.210833 178.794106-178.795129 0-18.640546 15.139815-33.784454 33.735335-33.784454 18.639522 0 33.739429 15.143908 33.739429 33.784454C453.515492 540.439726 343.070055 650.970098 207.245599 650.970098" p-id="3434" fill="#b1d1bd"></path><path d="M632.309598 650.970098c-135.780453 0-246.269893-110.530372-246.269893-246.264776 0-18.640546 15.139815-33.784454 33.735335-33.784454 18.639522 0 33.739429 15.143908 33.739429 33.784454 0 98.583273 80.205717 178.795129 178.794106 178.795129 18.640546 0 33.735335 15.050788 33.735335 33.69031C666.044934 635.830283 650.950144 650.970098 632.309598 650.970098" p-id="3435" fill="#b1d1bd"></path><path d="M419.776064 863.458607c-18.59552 0-33.735335-15.139815-33.735335-33.695427 0-135.823432 110.48944-246.263753 246.269893-246.263753 18.640546 0 33.735335 15.050788 33.735335 33.69031 0 18.640546-15.09479 33.780361-33.735335 33.780361-98.588389 0-178.794106 80.166831-178.794106 178.794106C453.515492 848.318792 438.415586 863.458607 419.776064 863.458607" p-id="3436" fill="#b1d1bd"></path><path d="M419.776064 863.458607c-18.59552 0-33.735335-15.139815-33.735335-33.695427 0-98.627275-80.210833-178.794106-178.794106-178.794106-18.639522 0-33.695427-15.139815-33.695427-33.780361 0-18.639522 15.054881-33.69031 33.695427-33.69031 135.823432 0 246.269893 110.440321 246.269893 246.263753C453.515492 848.318792 438.415586 863.458607 419.776064 863.458607" p-id="3437" fill="#b1d1bd"></path><path d="M535.21012 394.725016c-12.428054 0-22.491247-10.061147-22.491247-22.488177 0-12.429077 10.064216-22.493294 22.491247-22.493294 76.576049 0 138.884141-62.311161 138.884141-138.88721 0-12.422937 10.069333-22.4892 22.49227-22.4892 12.429077 0 22.49227 10.06524 22.49227 22.4892C719.079824 312.199465 636.595204 394.725016 535.21012 394.725016" p-id="3438" fill="#b1d1bd"></path><path d="M370.462938 262.316358c-6.786567 0-12.343119-5.511527-12.343119-12.339026 0-6.782473 5.555529-12.339026 12.343119-12.339026 42.008766 0 76.224032-34.132378 76.224032-76.139098 0-6.827499 5.511527-12.339026 12.339026-12.339026 6.827499 0 12.339026 5.511527 12.339026 12.339026C471.366046 217.071897 426.121586 262.316358 370.462938 262.316358" p-id="3439" fill="#b1d1bd"></path><path d="M857.962941 394.725016c-101.384062 0-183.868681-82.525552-183.868681-183.869704 0-12.422937 10.069333-22.4892 22.49227-22.4892 12.429077 0 22.49227 10.06524 22.49227 22.4892 0 76.576049 62.312184 138.88721 138.883117 138.88721 12.432147 0 22.493294 10.06524 22.493294 22.493294C880.456235 384.66387 870.395088 394.725016 857.962941 394.725016" p-id="3440" fill="#b1d1bd"></path><path d="M534.466176 262.316358c-55.617715 0-100.861152-45.24446-100.861152-100.81715 0-6.827499 5.555529-12.339026 12.339026-12.339026 6.827499 0 12.339026 5.511527 12.339026 12.339026 0 42.006719 34.17638 76.139098 76.184123 76.139098 6.827499 0 12.339026 5.556553 12.339026 12.339026C546.805202 256.80483 541.293675 262.316358 534.466176 262.316358" p-id="3441" fill="#b1d1bd"></path><path d="M696.587554 556.106544c-12.423961 0-22.49227-10.066263-22.49227-22.493294 0-101.429087 82.483596-183.869704 183.868681-183.869704 12.432147 0 22.493294 10.06524 22.493294 22.493294 0 12.428054-10.061147 22.488177-22.493294 22.488177-76.570933 0-138.883117 62.270229-138.883117 138.888234C719.079824 546.040281 709.015607 556.106544 696.587554 556.106544" p-id="3442" fill="#b1d1bd"></path><path d="M445.943027 337.796446c-6.782473 0-12.339026-5.511527-12.339026-12.294001 0-55.657624 45.24446-100.902084 100.861152-100.902084 6.827499 0 12.339026 5.511527 12.339026 12.339026 0 6.822382-5.511527 12.339026-12.339026 12.339026-42.007743 0-76.184123 34.172287-76.184123 76.225055C458.282053 332.284919 452.770526 337.796446 445.943027 337.796446" p-id="3443" fill="#b1d1bd"></path><path d="M696.587554 556.106544c-12.423961 0-22.49227-10.066263-22.49227-22.493294 0-76.618005-62.308091-138.888234-138.884141-138.888234-12.428054 0-22.491247-10.061147-22.491247-22.488177 0-12.429077 10.064216-22.493294 22.491247-22.493294 101.384062 0 183.869704 82.440617 183.869704 183.869704C719.079824 546.040281 709.015607 556.106544 696.587554 556.106544" p-id="3444" fill="#b1d1bd"></path><path d="M459.02702 337.796446c-6.827499 0-12.339026-5.511527-12.339026-12.294001 0-42.052768-34.216289-76.225055-76.224032-76.225055-6.786567 0-12.343119-5.516644-12.343119-12.339026 0-6.826476 5.555529-12.339026 12.343119-12.339026 55.657624 0 100.902084 45.24446 100.902084 100.902084C471.366046 332.284919 465.854519 337.796446 459.02702 337.796446" p-id="3445" fill="#b1d1bd"></path></svg>